# xmcd
#
# Track frame offsets:
#	150
#	14314
#	33717
#	48264
#	61933
#	85603
#	103573
#	118131
#	130833
#	144075
#	155349
#	169909
#	191940
#	212944
#	235534
#	257660
#	272455
#
# Disc length: 3867 seconds
#
# Revision: 1
# Processed by: cddbd v1.5.2PL0 Copyright (c) Steve Scherf et al.
# Submitted via: audiograbber 1.83.01
#
DISCID=e40f1911
DTITLE=Rob Ickes  - Contemporary Dobro Artistry
DYEAR=2008
DGENRE=
TTITLE0=Angeline The Baker
TTITLE1=I Am A Pilgrim
TTITLE2=Be Thou My Vision
TTITLE3=Monrobro
TTITLE4=Wayfaring Stranger
TTITLE5=Stanford And Son
TTITLE6=Made In France
TTITLE7=Wheel Hoss
TTITLE8=I'm Thinkin' Tonight Of My Blue Eyes
TTITLE9=Blackberry Blossom
TTITLE10=Jack's BBQ Blues
TTITLE11=September Song
TTITLE12=Lullaby Of Birdland
TTITLE13=Some Other Time
TTITLE14=Stars Fell On Alabama
TTITLE15=Ireland, Love Of My Heart
TTITLE16=The Old Rugged Cross
EXTD=
EXTT0=
EXTT1=
EXTT2=
EXTT3=
EXTT4=
EXTT5=
EXTT6=
EXTT7=
EXTT8=
EXTT9=
EXTT10=
EXTT11=
EXTT12=
EXTT13=
EXTT14=
EXTT15=
EXTT16=
PLAYORDER=
